# xmcd
#
# Track frame offsets: 
#        150
#        14195
#        30416
#        42428
#        54484
#        63137
#        74388
#        89651
#        105390
#        116834
#
# Disc length: 1735 seconds
#
# Revision: 1
# Processed by: cddbd v1.5.2PL0 Copyright (c) Steve Scherf et al.
# Submitted via: ExactAudioCopy v0.99pb5
#
DISCID=8806c50a
DTITLE=Various Artist - Pure Jazz Moods - CD1
DYEAR=2005
DGENRE=Jazz
TTITLE0=Norah Jones/Don't know why
TTITLE1=Nina Simone /My baby just cares for me
TTITLE2=Herb Alpert/Theme for Casinò Royale
TTITLE3=Tony Bennett/It had to be you
TTITLE4=Ray Charles/Hit the road Jack
TTITLE5=Dinah Washington/What a difference a day makes
TTITLE6=Kenny G/Spring Breeze
TTITLE7=Nat 'King' Cole/Mona Lisa
TTITLE8=Bing Crosby/Pennies from heaven
TTITLE9=Bobby Darin/Mack the knife
EXTD=YEAR: 2005
EXTT0=
EXTT1=
EXTT2=
EXTT3=
EXTT4=
EXTT5=
EXTT6=
EXTT7=
EXTT8=
EXTT9=
PLAYORDER=
